<svg xmlns="http://www.w3.org/2000/svg" width="1160" height="800" viewBox="0 0 1160 800">
<defs><marker id="a" markerWidth="10" markerHeight="10" refX="8" refY="3" orient="auto" markerUnits="strokeWidth">
<path d="M0,0 L8,3 L0,6 Z" fill="#1971c2"/></marker></defs>
<rect width="1160" height="800" fill="#ffffff"/>
<text x="40" y="25" font-family="Helvetica,Arial" font-size="18" font-weight="bold" fill="#1e1e1e">CloudNest - Architecture</text>
<rect x="40" y="40" width="160" height="60" rx="8" fill="#d0ebff" stroke="#1e1e1e" stroke-width="2"/><rect x="260" y="40" width="210" height="60" rx="8" fill="#d0ebff" stroke="#1e1e1e" stroke-width="2"/><rect x="530" y="40" width="150" height="60" rx="8" fill="#ffec99" stroke="#1e1e1e" stroke-width="2"/><rect x="40" y="140" width="1080" height="640" rx="8" fill="#f8f9fa" stroke="#1e1e1e" stroke-width="2"/><rect x="70" y="195" width="640" height="370" rx="8" fill="#e7f5ff" stroke="#1e1e1e" stroke-width="2"/><rect x="100" y="250" width="580" height="295" rx="8" fill="#fff0f6" stroke="#1e1e1e" stroke-width="2"/><rect x="130" y="300" width="240" height="90" rx="8" fill="#ffffff" stroke="#1e1e1e" stroke-width="2"/><rect x="400" y="300" width="250" height="90" rx="8" fill="#ffffff" stroke="#1e1e1e" stroke-width="2"/><rect x="130" y="425" width="240" height="95" rx="8" fill="#ffffff" stroke="#1e1e1e" stroke-width="2"/><rect x="400" y="425" width="250" height="95" rx="8" fill="#e6fcf5" stroke="#1e1e1e" stroke-width="2"/><rect x="740" y="250" width="160" height="120" rx="8" fill="#fff9db" stroke="#1e1e1e" stroke-width="2"/><rect x="740" y="400" width="165" height="46" rx="8" fill="#ffffff" stroke="#1e1e1e" stroke-width="2"/><rect x="740" y="458" width="165" height="46" rx="8" fill="#ffffff" stroke="#1e1e1e" stroke-width="2"/><rect x="740" y="516" width="165" height="46" rx="8" fill="#ffffff" stroke="#1e1e1e" stroke-width="2"/><rect x="925" y="250" width="165" height="46" rx="8" fill="#ffffff" stroke="#1e1e1e" stroke-width="2"/><rect x="925" y="308" width="165" height="46" rx="8" fill="#ffffff" stroke="#1e1e1e" stroke-width="2"/><rect x="925" y="366" width="165" height="46" rx="8" fill="#ffffff" stroke="#1e1e1e" stroke-width="2"/><rect x="925" y="424" width="165" height="46" rx="8" fill="#ffffff" stroke="#1e1e1e" stroke-width="2"/><rect x="925" y="482" width="165" height="46" rx="8" fill="#ffffff" stroke="#1e1e1e" stroke-width="2"/><rect x="70" y="595" width="1020" height="165" rx="8" fill="#f3f0ff" stroke="#1e1e1e" stroke-width="2"/><rect x="100" y="635" width="150" height="60" rx="8" fill="#ffffff" stroke="#1e1e1e" stroke-width="2"/><rect x="290" y="635" width="150" height="60" rx="8" fill="#ffffff" stroke="#1e1e1e" stroke-width="2"/><rect x="480" y="635" width="150" height="60" rx="8" fill="#ffffff" stroke="#1e1e1e" stroke-width="2"/><rect x="670" y="635" width="150" height="60" rx="8" fill="#ffffff" stroke="#1e1e1e" stroke-width="2"/><rect x="860" y="635" width="150" height="60" rx="8" fill="#ffffff" stroke="#1e1e1e" stroke-width="2"/>
<line x1="200" y1="70" x2="260" y2="70" stroke="#1971c2" stroke-width="2" marker-end="url(#a)"/><line x1="470" y1="70" x2="530" y2="70" stroke="#1971c2" stroke-width="2" marker-end="url(#a)"/><line x1="370" y1="470" x2="740" y2="360" stroke="#2f9e44" stroke-width="2" marker-end="url(#a)"/><line x1="250" y1="665" x2="290" y2="665" stroke="#1971c2" stroke-width="2" marker-end="url(#a)"/><line x1="440" y1="665" x2="480" y2="665" stroke="#1971c2" stroke-width="2" marker-end="url(#a)"/><line x1="860" y1="665" x2="820" y2="665" stroke="#2f9e44" stroke-width="2" marker-end="url(#a)"/>
<text x="50" y="60" font-family="Helvetica,Arial" font-size="13" fill="#1e1e1e">Developer</text><text x="50" y="77" font-family="Helvetica,Arial" font-size="13" fill="#1e1e1e">(PR -> main)</text><text x="270" y="60" font-family="Helvetica,Arial" font-size="12" fill="#1e1e1e">GitHub Actions</text><text x="270" y="76" font-family="Helvetica,Arial" font-size="12" fill="#1e1e1e">validate->plan->apply (OIDC)</text><text x="540" y="60" font-family="Helvetica,Arial" font-size="13" fill="#1e1e1e">AWS Account</text><text x="540" y="77" font-family="Helvetica,Arial" font-size="13" fill="#1e1e1e">(dev)</text><text x="50" y="160" font-family="Helvetica,Arial" font-size="13" fill="#868e96">AWS Account (dev) - us-east-1</text><text x="80" y="215" font-family="Helvetica,Arial" font-size="12" fill="#1971c2">VPC (public+private subnets, NAT, flow logs)</text><text x="110" y="270" font-family="Helvetica,Arial" font-size="12" fill="#c2255c">EKS Cluster (control plane)</text><text x="140" y="320" font-family="Helvetica,Arial" font-size="12" fill="#1e1e1e">System node group</text><text x="140" y="336" font-family="Helvetica,Arial" font-size="12" fill="#1e1e1e">(on-demand, HA)</text><text x="140" y="352" font-family="Helvetica,Arial" font-size="12" fill="#1e1e1e">Karpenter + CoreDNS</text><text x="410" y="320" font-family="Helvetica,Arial" font-size="12" fill="#1e1e1e">Karpenter</text><text x="410" y="336" font-family="Helvetica,Arial" font-size="12" fill="#1e1e1e">CPU + GPU NodePools</text><text x="410" y="352" font-family="Helvetica,Arial" font-size="12" fill="#1e1e1e">scale 0 -> N on demand</text><text x="140" y="445" font-family="Helvetica,Arial" font-size="12" fill="#1e1e1e">EFS CSI driver</text><text x="140" y="461" font-family="Helvetica,Arial" font-size="12" fill="#1e1e1e">-> efs-sc (RWX PVCs)</text><text x="140" y="477" font-family="Helvetica,Arial" font-size="12" fill="#1e1e1e">IRSA, no keys</text><text x="410" y="445" font-family="Helvetica,Arial" font-size="12" fill="#1e1e1e">monitoring namespace</text><text x="410" y="461" font-family="Helvetica,Arial" font-size="12" fill="#1e1e1e">Prometheus/Grafana</text><text x="410" y="477" font-family="Helvetica,Arial" font-size="12" fill="#1e1e1e">Loki/Promtail</text><text x="750" y="270" font-family="Helvetica,Arial" font-size="12" fill="#1e1e1e">EFS filesystem</text><text x="750" y="286" font-family="Helvetica,Arial" font-size="12" fill="#1e1e1e">KMS</text><text x="750" y="302" font-family="Helvetica,Arial" font-size="12" fill="#1e1e1e">3x mount</text><text x="750" y="318" font-family="Helvetica,Arial" font-size="12" fill="#1e1e1e">targets</text><text x="750" y="420" font-family="Helvetica,Arial" font-size="12" fill="#1e1e1e">S3 (state, Loki)</text><text x="750" y="478" font-family="Helvetica,Arial" font-size="12" fill="#1e1e1e">DynamoDB (lock)</text><text x="750" y="536" font-family="Helvetica,Arial" font-size="12" fill="#1e1e1e">ECR (images)</text><text x="935" y="270" font-family="Helvetica,Arial" font-size="12" fill="#1e1e1e">RDS PostgreSQL</text><text x="935" y="328" font-family="Helvetica,Arial" font-size="12" fill="#1e1e1e">KMS (encryption)</text><text x="935" y="386" font-family="Helvetica,Arial" font-size="12" fill="#1e1e1e">Secrets Manager</text><text x="935" y="444" font-family="Helvetica,Arial" font-size="12" fill="#1e1e1e">WAF + ALB</text><text x="935" y="502" font-family="Helvetica,Arial" font-size="12" fill="#1e1e1e">Route53 (private)</text><text x="80" y="615" font-family="Helvetica,Arial" font-size="13" fill="#7048e8">Observability flow (CNP-015..018)</text><text x="110" y="655" font-family="Helvetica,Arial" font-size="12" fill="#1e1e1e">Prometheus</text><text x="110" y="671" font-family="Helvetica,Arial" font-size="12" fill="#1e1e1e">(metrics)</text><text x="300" y="655" font-family="Helvetica,Arial" font-size="12" fill="#1e1e1e">Alertmanager</text><text x="300" y="671" font-family="Helvetica,Arial" font-size="12" fill="#1e1e1e">warn/crit</text><text x="490" y="655" font-family="Helvetica,Arial" font-size="12" fill="#1e1e1e">Grafana</text><text x="490" y="671" font-family="Helvetica,Arial" font-size="12" fill="#1e1e1e">dashboards</text><text x="680" y="655" font-family="Helvetica,Arial" font-size="12" fill="#1e1e1e">Loki</text><text x="680" y="671" font-family="Helvetica,Arial" font-size="12" fill="#1e1e1e">(logs->S3)</text><text x="870" y="655" font-family="Helvetica,Arial" font-size="12" fill="#1e1e1e">Promtail</text><text x="870" y="671" font-family="Helvetica,Arial" font-size="12" fill="#1e1e1e">(DaemonSet)</text>
</svg>